<svg id="visual" viewBox="0 0 900 600" width="900" height="600" xmlns="http://www.w3.org/2000/svg" xmlns:xlink="http://www.w3.org/1999/xlink" version="1.1"><rect x="0" y="0" width="900" height="600" fill="#002233"></rect><path d="M453 600L462.5 575C472 550 491 500 513.7 450C536.3 400 562.7 350 548 300C533.3 250 477.7 200 467.5 150C457.3 100 492.7 50 510.3 25L528 0L900 0L900 25C900 50 900 100 900 150C900 200 900 250 900 300C900 350 900 400 900 450C900 500 900 550 900 575L900 600Z" fill="#0164a5" stroke-linecap="round" stroke-linejoin="miter"></path></svg>